<svg width="345" height="330" viewBox="0 0 345 330" fill="none" xmlns="http://www.w3.org/2000/svg">
<path d="M71 84L128 96L158 154L188 193L272 205L279 229.75L328.5 254.5" stroke="#9E7F43" stroke-width="3"/>
<path d="M142.667 56.4568C141.694 68.0958 139.719 78.5256 137.318 85.976C136.117 89.7051 134.817 92.6608 133.5 94.6454C132.842 95.638 132.193 96.3655 131.57 96.8279C130.951 97.2879 130.382 97.4678 129.86 97.4241C129.337 97.3804 128.806 97.1087 128.272 96.5524C127.734 95.9929 127.215 95.1679 126.73 94.0799C125.761 91.9042 124.97 88.7739 124.404 84.8971C123.273 77.1517 123.055 66.5387 124.027 54.8997C125 43.2607 126.975 32.8309 129.376 25.3805C130.577 21.6514 131.877 18.6957 133.194 16.7111C133.852 15.7185 134.501 14.991 135.124 14.5286C135.743 14.0686 136.312 13.8887 136.834 13.9324C137.357 13.9761 137.888 14.2478 138.422 14.8041C138.96 15.3636 139.479 16.1886 139.964 17.2766C140.933 19.4523 141.724 22.5826 142.29 26.4594C143.421 34.2048 143.639 44.8178 142.667 56.4568Z" fill="#95D676" stroke="black"/>
<path d="M110.667 46.8428C109.694 58.4819 107.719 68.9116 105.318 76.362C104.117 80.0911 102.817 83.0468 101.5 85.0315C100.842 86.024 100.193 86.7515 99.5703 87.214C98.9507 87.6739 98.3824 87.8538 97.8596 87.8101C97.3368 87.7665 96.8062 87.4948 96.2715 86.9384C95.7339 86.379 95.2152 85.554 94.7304 84.4659C93.7612 82.2903 92.9702 79.1599 92.404 75.2832C91.2729 67.5378 91.055 56.9247 92.0273 45.2857C92.9996 33.6467 94.9754 23.217 97.3759 15.7666C98.5775 12.0375 99.8769 9.08179 101.194 7.09711C101.852 6.10458 102.501 5.37708 103.124 4.91461C103.743 4.45466 104.312 4.27477 104.834 4.31844C105.357 4.36212 105.888 4.63381 106.422 5.19019C106.96 5.74962 107.479 6.57462 107.964 7.66265C108.933 9.8383 109.724 12.9686 110.29 16.8454C111.421 24.5908 111.639 35.2038 110.667 46.8428Z" fill="#95D676" stroke="black"/>
<path d="M75.2368 41.8407C77.2538 53.3447 77.9931 63.9342 77.5644 71.75C77.3499 75.662 76.8441 78.8509 76.0748 81.1051C75.6901 82.2323 75.2478 83.1007 74.7628 83.7063C74.2804 84.3086 73.7764 84.627 73.2597 84.7176C72.7429 84.8082 72.1607 84.6802 71.5022 84.278C70.8401 83.8735 70.1287 83.2074 69.3835 82.2783C67.8932 80.4203 66.3327 77.5937 64.8001 73.9881C61.738 66.7843 58.8305 56.575 56.8134 45.0709C54.7964 33.5668 54.0571 22.9773 54.4858 15.1615C54.7003 11.2495 55.2061 8.06062 55.9754 5.80649C56.3601 4.67921 56.8024 3.81083 57.2874 3.20523C57.7698 2.60294 58.2738 2.28455 58.7905 2.19394C59.3073 2.10334 59.8895 2.23129 60.548 2.63354C61.2101 3.038 61.9215 3.70411 62.6667 4.63327C64.157 6.49123 65.7175 9.31782 67.2501 12.9235C70.3122 20.1273 73.2197 30.3366 75.2368 41.8407Z" fill="#95D676" stroke="black"/>
<path d="M171.865 123.054C171.115 132.035 169.342 140.054 167.094 145.757C165.969 148.611 164.735 150.858 163.472 152.353C162.198 153.861 160.974 154.517 159.86 154.424C158.745 154.331 157.647 153.481 156.641 151.783C155.643 150.098 154.8 147.678 154.164 144.677C152.893 138.68 152.475 130.477 153.226 121.497C153.976 112.516 155.749 104.497 157.997 98.794C159.122 95.9395 160.355 93.6931 161.619 92.1975C162.892 90.6898 164.116 90.0337 165.231 90.1268C166.345 90.2199 167.444 91.0701 168.45 92.7681C169.447 94.4527 170.291 96.8726 170.927 99.8742C172.197 105.871 172.615 114.073 171.865 123.054Z" fill="#95D676" stroke="black"/>
<path d="M203.497 143.523C202.295 157.91 200.11 170.831 197.555 180.087C196.276 184.719 194.912 188.408 193.544 190.901C192.859 192.149 192.188 193.07 191.547 193.66C190.905 194.25 190.345 194.465 189.86 194.424C189.375 194.384 188.858 194.079 188.323 193.39C187.789 192.702 187.279 191.682 186.811 190.338C185.876 187.653 185.142 183.789 184.65 179.009C183.666 169.457 183.655 156.353 184.857 141.966C186.059 127.579 188.244 114.658 190.799 105.403C192.077 100.771 193.442 97.0811 194.81 94.5886C195.495 93.3407 196.166 92.4195 196.807 91.8296C197.449 91.2389 198.009 91.0247 198.494 91.0652C198.979 91.1057 199.496 91.4099 200.031 92.0989C200.565 92.787 201.074 93.8068 201.543 95.151C202.478 97.836 203.212 101.701 203.704 106.481C204.688 116.032 204.698 129.136 203.497 143.523Z" fill="#95D676" stroke="black"/>
<path d="M285.579 161.07C284.552 173.364 282.559 184.39 280.172 192.276C278.977 196.222 277.692 199.356 276.396 201.465C275.747 202.52 275.11 203.295 274.5 203.788C273.893 204.279 273.349 204.465 272.86 204.424C272.371 204.383 271.864 204.11 271.347 203.525C270.828 202.937 270.328 202.068 269.864 200.919C268.935 198.625 268.187 195.321 267.664 191.231C266.619 183.059 266.482 171.854 267.509 159.561C268.536 147.267 270.53 136.241 272.917 128.356C274.111 124.409 275.397 121.275 276.693 119.166C277.342 118.111 277.979 117.337 278.588 116.843C279.195 116.352 279.74 116.166 280.229 116.207C280.718 116.248 281.224 116.521 281.742 117.107C282.261 117.694 282.761 118.564 283.225 119.712C284.154 122.007 284.901 125.31 285.424 129.4C286.47 137.573 286.606 148.777 285.579 161.07Z" fill="#95D676" stroke="black"/>
<path d="M342.183 209.552C341.753 222.489 340.296 234.152 338.293 242.546C337.29 246.748 336.157 250.104 334.962 252.388C334.364 253.531 333.764 254.379 333.177 254.93C332.592 255.48 332.06 255.7 331.578 255.684C331.096 255.668 330.579 255.413 330.032 254.825C329.483 254.236 328.94 253.35 328.42 252.17C327.379 249.812 326.472 246.388 325.751 242.129C324.31 233.62 323.63 221.887 324.06 208.95C324.491 196.012 325.948 184.35 327.951 175.956C328.953 171.754 330.086 168.398 331.281 166.114C331.879 164.971 332.48 164.123 333.066 163.572C333.652 163.022 334.184 162.802 334.666 162.818C335.148 162.834 335.664 163.089 336.212 163.676C336.761 164.265 337.303 165.152 337.824 166.332C338.865 168.69 339.772 172.114 340.493 176.373C341.934 184.881 342.614 196.615 342.183 209.552Z" fill="#95D676" stroke="black"/>
<path d="M314.049 207.634C313.089 217.288 311.16 225.904 308.826 232.027C307.657 235.092 306.398 237.505 305.128 239.11C303.84 240.736 302.639 241.415 301.59 241.31C300.54 241.206 299.496 240.304 298.554 238.456C297.625 236.633 296.865 234.019 296.323 230.784C295.241 224.321 295.045 215.493 296.005 205.84C296.965 196.186 298.895 187.57 301.229 181.447C302.397 178.382 303.657 175.969 304.927 174.364C306.214 172.738 307.415 172.059 308.465 172.164C309.515 172.268 310.559 173.17 311.5 175.018C312.43 176.841 313.19 179.455 313.731 182.69C314.814 189.153 315.009 197.98 314.049 207.634Z" fill="#95D676" stroke="black"/>
<path d="M245.857 155.169C246.478 167.398 245.94 178.51 244.574 186.585C243.891 190.627 243.005 193.881 241.968 196.128C241.45 197.253 240.905 198.1 240.349 198.668C239.796 199.233 239.26 199.494 238.744 199.52C238.228 199.546 237.668 199.341 237.061 198.834C236.45 198.326 235.823 197.538 235.193 196.472C233.934 194.341 232.723 191.194 231.634 187.242C229.458 179.346 227.798 168.346 227.177 156.117C226.556 143.888 227.094 132.776 228.46 124.7C229.143 120.658 230.029 117.404 231.066 115.157C231.584 114.033 232.129 113.185 232.685 112.618C233.238 112.053 233.774 111.791 234.29 111.765C234.806 111.739 235.366 111.945 235.973 112.451C236.584 112.959 237.211 113.747 237.841 114.813C239.1 116.944 240.311 120.091 241.4 124.043C243.576 131.939 245.237 142.939 245.857 155.169Z" fill="#95D676" stroke="black"/>
<path d="M118.16 134.458C123.449 124.741 127.262 115.432 129.158 108.245C130.107 104.648 130.568 101.609 130.506 99.3289C130.443 97.0066 129.847 95.6604 128.907 95.149C127.968 94.6376 126.513 94.8679 124.529 96.0759C122.58 97.2622 120.279 99.2987 117.773 102.049C112.767 107.543 107.02 115.8 101.731 125.517C96.4428 135.234 92.6293 144.542 90.7337 151.73C89.7848 155.327 89.324 158.365 89.3859 160.646C89.4489 162.968 90.045 164.314 90.9846 164.826C91.9241 165.337 93.3783 165.107 95.3627 163.899C97.3114 162.713 99.6127 160.676 102.119 157.926C107.125 152.432 112.872 144.175 118.16 134.458Z" fill="#95D676" stroke="black"/>
<path d="M62.0682 122.458C67.3568 112.741 71.1703 103.432 73.066 96.2452C74.0148 92.6477 74.4756 89.6094 74.4138 87.3289C74.3508 85.0066 73.7547 83.6604 72.8151 83.149C71.8755 82.6376 70.4213 82.8679 68.4369 84.0759C66.4882 85.2622 64.187 87.2987 61.6811 90.0488C56.6747 95.543 50.9281 103.8 45.6395 113.517C40.3508 123.234 36.5373 132.542 34.6417 139.73C33.6928 143.327 33.232 146.365 33.2939 148.646C33.3568 150.968 33.953 152.314 34.8926 152.826C35.8321 153.337 37.2863 153.107 39.2707 151.899C41.2194 150.713 43.5207 148.676 46.0266 145.926C51.033 140.432 56.7796 132.175 62.0682 122.458Z" fill="#95D676" stroke="black"/>
<path d="M36.7958 95.4716C46.0723 93.9661 54.2755 91.5185 60.0367 88.7898C62.9205 87.4239 65.1656 86.0001 66.6281 84.6087C68.1049 83.2037 68.691 81.9252 68.5128 80.8271C68.3346 79.7291 67.3743 78.7015 65.5289 77.8356C63.7015 76.9781 61.1213 76.3374 57.9536 75.9537C51.6251 75.187 43.0689 75.4592 33.7923 76.9646C24.5158 78.4701 16.3126 80.9178 10.5514 83.6465C7.66767 85.0123 5.42252 86.4361 3.96002 87.8275C2.48322 89.2326 1.89717 90.5111 2.07537 91.6091C2.25357 92.7072 3.21387 93.7347 5.05921 94.6006C6.88668 95.4581 9.46688 96.0988 12.6346 96.4826C18.963 97.2493 27.5193 96.9771 36.7958 95.4716Z" fill="#95D676" stroke="black"/>
<path d="M89.0682 126.458C94.3568 116.741 98.1703 107.432 100.066 100.245C101.015 96.6477 101.476 93.6094 101.414 91.3289C101.351 89.0066 100.755 87.6604 99.8151 87.149C98.8755 86.6376 97.4213 86.8679 95.4369 88.0759C93.4882 89.2622 91.187 91.2987 88.6811 94.0488C83.6747 99.543 77.9281 107.8 72.6395 117.517C67.3508 127.234 63.5373 136.542 61.6417 143.73C60.6928 147.327 60.232 150.365 60.2939 152.646C60.3568 154.968 60.953 156.314 61.8926 156.826C62.8321 157.337 64.2863 157.107 66.2707 155.899C68.2194 154.713 70.5207 152.676 73.0266 149.926C78.033 144.432 83.7796 136.175 89.0682 126.458Z" fill="#95D676" stroke="black"/>
<path d="M149.693 190.642C154.557 181.705 157.986 173.103 159.605 166.43C160.415 163.09 160.764 160.261 160.627 158.126C160.489 155.962 159.865 154.67 158.907 154.149C157.95 153.628 156.526 153.805 154.633 154.864C152.767 155.908 150.581 157.737 148.215 160.231C143.49 165.213 138.128 172.763 133.264 181.7C128.4 190.637 124.971 199.239 123.353 205.912C122.543 209.252 122.194 212.081 122.33 214.216C122.469 216.38 123.093 217.672 124.05 218.193C125.008 218.714 126.431 218.537 128.324 217.478C130.191 216.434 132.377 214.605 134.742 212.111C139.468 207.128 144.829 199.579 149.693 190.642Z" fill="#95D676" stroke="black"/>
<path d="M176.335 236.812C182.167 226.199 186.474 216.074 188.728 208.291C189.857 204.395 190.463 201.113 190.5 198.661C190.518 197.434 190.394 196.443 190.139 195.695C189.885 194.951 189.516 194.483 189.061 194.233C188.606 193.983 188.013 193.922 187.249 194.107C186.482 194.293 185.578 194.719 184.552 195.393C182.502 196.739 180.056 199.01 177.373 202.051C172.011 208.127 165.774 217.191 159.942 227.804C154.11 238.417 149.803 248.542 147.548 256.325C146.42 260.221 145.814 263.503 145.777 265.956C145.759 267.182 145.883 268.174 146.138 268.921C146.392 269.665 146.761 270.133 147.216 270.383C147.67 270.633 148.264 270.694 149.028 270.509C149.795 270.323 150.699 269.897 151.725 269.224C153.775 267.878 156.221 265.606 158.904 262.565C164.266 256.489 170.503 247.425 176.335 236.812Z" fill="#95D676" stroke="black"/>
<path d="M261.046 241.473C266.228 231.952 269.972 222.837 271.843 215.802C272.78 212.281 273.239 209.31 273.188 207.081C273.135 204.809 272.559 203.504 271.656 203.012C270.753 202.521 269.344 202.746 267.408 203.936C265.508 205.102 263.262 207.101 260.814 209.799C255.923 215.19 250.301 223.284 245.119 232.804C239.937 242.325 236.193 251.441 234.322 258.475C233.385 261.996 232.926 264.968 232.977 267.196C233.03 269.468 233.606 270.773 234.509 271.265C235.412 271.756 236.821 271.531 238.757 270.342C240.657 269.175 242.903 267.176 245.351 264.478C250.242 259.088 255.864 250.993 261.046 241.473Z" fill="#95D676" stroke="black"/>
<path d="M315.5 295.231C322.504 285.787 327.978 276.612 331.168 269.421C332.765 265.822 333.779 262.745 334.136 260.392C334.315 259.215 334.325 258.247 334.179 257.496C334.033 256.75 333.74 256.254 333.339 255.957C332.939 255.66 332.38 255.524 331.623 255.601C330.862 255.678 329.938 255.969 328.864 256.482C326.717 257.507 324.066 259.37 321.085 261.943C315.13 267.084 307.94 274.985 300.935 284.429C293.931 293.873 288.458 303.047 285.267 310.238C283.67 313.838 282.656 316.915 282.299 319.267C282.12 320.444 282.11 321.413 282.256 322.163C282.402 322.91 282.695 323.405 283.096 323.702C283.496 324 284.055 324.136 284.812 324.059C285.573 323.981 286.497 323.69 287.571 323.177C289.719 322.153 292.369 320.289 295.35 317.716C301.305 312.576 308.496 304.675 315.5 295.231Z" fill="#95D676" stroke="black"/>
<path d="M292.8 271.383C296.942 263.478 299.737 255.843 300.917 249.899C301.507 246.923 301.687 244.4 301.445 242.49C301.2 240.562 300.545 239.382 299.594 238.883C298.642 238.384 297.299 238.518 295.575 239.414C293.866 240.302 291.894 241.885 289.783 244.064C285.567 248.418 280.88 255.062 276.738 262.966C272.596 270.871 269.8 278.506 268.621 284.45C268.03 287.426 267.851 289.949 268.093 291.859C268.337 293.787 268.992 294.967 269.944 295.466C270.896 295.965 272.239 295.831 273.963 294.935C275.672 294.047 277.644 292.464 279.755 290.285C283.971 285.931 288.658 279.287 292.8 271.383Z" fill="#95D676" stroke="black"/>
<path d="M227.02 238.37C232.295 228.677 236.097 219.391 237.984 212.22C238.928 208.63 239.386 205.598 239.321 203.323C239.256 201.005 238.659 199.661 237.719 199.149C236.779 198.637 235.326 198.866 233.344 200.069C231.398 201.251 229.1 203.281 226.599 206.023C221.601 211.501 215.867 219.736 210.591 229.428C205.316 239.121 201.515 248.407 199.628 255.579C198.683 259.168 198.226 262.2 198.29 264.476C198.355 266.793 198.952 268.137 199.893 268.649C200.833 269.161 202.286 268.932 204.267 267.729C206.214 266.547 208.511 264.517 211.013 261.775C216.01 256.297 221.745 248.062 227.02 238.37Z" fill="#95D676" stroke="black"/>
</svg>
